<svg width="699" height="86" fill="none" xmlns="http://www.w3.org/2000/svg"><g clip-path="url(#a)"><path fill-rule="evenodd" clip-rule="evenodd" d="M149.81 22.79h47.58c10.79 0 19.63 8.52 19.63 18.92v43.33h-71.15c-6.48.1-11.82-5.05-11.95-11.53v-15c.16-6 5.1-10.77 11.11-10.71h39.47l-4.18 8.71h-29a2.58 2.58 0 0 0-2.68 2.31v11.84a2.58 2.58 0 0 0 2.68 2.31h50.37v-28.4c0-5.51-4.91-9.71-10.36-9.71h-47.28l5.76-12.07Zm391-22.64v84.89h-69.36c-6.49.12-11.86-5.03-12-11.52V41.71c0-10.4 8.83-18.92 19.63-18.92h39.53l-5.82 12.07h-27.6c-5.45 0-10.36 4.2-10.36 9.71v26.09a2.58 2.58 0 0 0 2.68 2.31h47.92V.15h15.38ZM297.05 85.03h15.37V41.71c0-10.4-8.83-18.92-19.63-18.92h-32.6l-5.8 12.07h32.3c5.46 0 10.36 4.2 10.36 9.71v40.46ZM233.12.15v84.89h15.37V.15h-15.37ZM104.98 85.04h15.37V41.71c0-10.4-8.83-18.92-19.63-18.92H0v62.25h15.37V37.17a2.59 2.59 0 0 1 2.69-2.31h31.75a2.58 2.58 0 0 1 2.68 2.31v47.87h15.37V37.17a2.575 2.575 0 0 1 2.69-2.31h24.07c5.46 0 10.36 4.2 10.36 9.71v40.47Zm516.05-62.25h-38.56c-10.8 0-19.63 8.52-19.63 18.92v43.33h15.35V44.57c0-5.51 4.9-9.71 10.36-9.71h26.64l5.84-12.07Zm-196.69 0c10.8 0 19.64 8.52 19.64 18.92v43.33h-15.37V44.57c0-5.51-4.91-9.71-10.36-9.71h-36.92v50.18h-15.38V22.82c19.42 0 38.88 0 58.39-.03Zm-92.84 3.93 15.37-8.75v67.07H331.5V26.72Zm15.37-17.5V0H331.5v18l15.37-8.78Zm284.86 13.57h47.58c10.8 0 19.63 8.52 19.63 18.92v43.33h-71.15c-6.49.12-11.86-5.03-12-11.52V58.51c.16-6.01 5.11-10.78 11.12-10.71h39.46l-4.13 8.71h-29.05a2.58 2.58 0 0 0-2.68 2.31v11.84a2.58 2.58 0 0 0 2.68 2.31h50.37v-28.4c0-5.51-4.91-9.71-10.36-9.71h-47.23l5.76-12.07Z" fill="#EA3A51"/></g><defs><clipPath id="a"><path fill="#fff" d="M0 0h698.94v85.04H0z"/></clipPath></defs></svg>
